<svg xmlns="http://www.w3.org/2000/svg" viewBox="0 0 102.5 102.6"><style type="text/css">.st0{fill:#111}</style><g><path class="st0" d="M1.3,62.5c0.4,0,0.7-0.2,1-0.4l7.8-9.3v48.5c0,0.7,0.6,1.3,1.3,1.3h80c0.7,0,1.3-0.6,1.3-1.3V52.7l7.8,9.3
		c0.2,0.3,0.6,0.4,1,0.4c0.3,0,0.6-0.1,0.8-0.3c0.5-0.4,0.6-1.2,0.2-1.8l-50-60c-0.5-0.5-1.3-0.6-1.9,0l-50,60
		c-0.4,0.5-0.4,1.3,0.2,1.8C0.7,62.4,1,62.5,1.3,62.5z M90,100c-23.6-0.3-36.8-10-37.4-27.5h3.7c0.3,0,0.6-0.1,0.9-0.4l5-5
		c0.2-0.2,0.4-0.6,0.4-0.9v-15c0-0.7-0.6-1.3-1.3-1.3h-3.8v-8.8c0-0.7-0.6-1.3-1.3-1.3c-0.7,0-1.3,0.6-1.3,1.3V50h-7.5v-8.8
		c0-0.7-0.6-1.3-1.3-1.3c-0.7,0-1.3,0.6-1.3,1.3V50h-3.8c-0.7,0-1.3,0.6-1.3,1.3v15c0,0.3,0.1,0.6,0.4,0.9l5,5
		c0.2,0.2,0.6,0.4,0.9,0.4h3.8c0.4,13.9,8.1,23.3,22.1,27.5H12.5V49.7L51.3,3.2L90,49.7V100z M60,52.5v13.2L55.7,70h-9l-4.3-4.3
		V52.5H60z"/><path class="st0" d="M46.3,57.5h10c0.7,0,1.3-0.6,1.3-1.3S56.9,55,56.3,55h-10c-0.7,0-1.3,0.6-1.3,1.3S45.6,57.5,46.3,57.5z"/><path class="st0" d="M46.3,62.5h10c0.7,0,1.3-0.6,1.3-1.3S56.9,60,56.3,60h-10c-0.7,0-1.3,0.6-1.3,1.3S45.6,62.5,46.3,62.5z"/></g><script type="text/javascript"><![CDATA[ var c=window.location.search.split("color=")[1];if(c=parseInt(c,16),!isNaN(c)){c=c.toString(16);for(var p=document.getElementsByTagName("path"),i=0,l=p.length;i<l;i++){p[i].style.fill="#"+c}} ]]></script></svg>