<svg xmlns="http://www.w3.org/2000/svg" viewBox="0 0 102.5 102.6"><style type="text/css">.st0{fill:#111}</style><g><path class="st0" d="M74.2,57L63.6,67.6c-0.5,0.5-0.5,1.3,0,1.8c0.2,0.2,0.6,0.4,0.9,0.4c0.3,0,0.6-0.1,0.9-0.4L76,58.8
		c0.5-0.5,0.5-1.3,0-1.8C75.5,56.5,74.7,56.5,74.2,57z"/><path class="st0" d="M72.5,53.5c-0.5-0.5-1.3-0.5-1.8,0L60.1,64.1c-0.5,0.5-0.5,1.3,0,1.8c0.2,0.2,0.6,0.4,0.9,0.4
		c0.3,0,0.6-0.1,0.9-0.4l10.6-10.6C72.9,54.8,72.9,54,72.5,53.5z"/><path class="st0" d="M68.9,50c-0.5-0.5-1.3-0.5-1.8,0L56.6,60.6c-0.5,0.5-0.5,1.3,0,1.8c0.2,0.2,0.6,0.4,0.9,0.4
		c0.3,0,0.6-0.1,0.9-0.4l10.6-10.6C69.4,51.2,69.4,50.4,68.9,50z"/><path class="st0" d="M87.5,15.1C87.5,15.1,87.5,15.1,87.5,15.1C78.2,5.8,65.4,0,51.3,0C23,0,0,23,0,51.3c0,14.1,5.7,26.9,15,36.2
		c0,0,0,0,0,0c0,0,0,0,0,0c9.3,9.3,22.1,15,36.2,15c28.3,0,51.3-23,51.3-51.3C102.5,37.2,96.8,24.4,87.5,15.1
		C87.5,15.1,87.5,15.1,87.5,15.1z M51.3,2.5c13,0,24.8,5.1,33.5,13.5L59.9,40.9l-1.5-1.5c-0.5-0.5-1.3-0.5-1.8,0l-0.9,0.9L53,37.6
		L42.4,27c-0.5-0.5-1.3-0.5-1.8,0L37.6,30c-0.8-0.8-1.6-1.5-2.3-2.1c-3.3-2.7-6.6-4.4-9.8-5.1c-5-1-9.5,0.4-13.5,4.4
		c-0.5,0.5-0.5,1.3,0,1.8c0.5,0.5,1.3,0.5,1.8,0c4.5-4.5,9.2-4.7,13.5-3.1c-2.2,1-4.5,3.2-7.8,6.4c-0.5,0.5-0.5,1.3,0,1.8
		c0.2,0.2,0.6,0.4,0.9,0.4c0.3,0,0.6-0.1,0.9-0.4c5.6-5.6,7.6-7.5,10.9-5.5c1.2,0.8,3.6,3,3.7,3.1l-2.3,2.3c-0.5,0.5-0.5,1.3,0,1.8
		l10.6,10.6l2.7,2.7L46,50c-0.5,0.5-0.5,1.3,0,1.8l1.5,1.5L16,84.8C7.6,76.1,2.5,64.3,2.5,51.3C2.5,24.4,24.4,2.5,51.3,2.5z
		 M77.8,60.6C77.8,60.6,77.8,60.6,77.8,60.6C77.8,60.6,77.8,60.6,77.8,60.6L67.2,71.2c0,0,0,0,0,0s0,0,0,0l-2.6,2.6l-9.4-9.4
		c-0.1-4-1.7-7.9-4.2-11.1l9.1-9.1c3.1,2.6,7,4.1,11.1,4.2l9.4,9.4L77.8,60.6z M48.6,50.9l0.9-0.9c0.5-0.5,0.5-1.3,0-1.8l-2.7-2.7
		l5.3-5.3l2.7,2.7c0.5,0.5,1.3,0.5,1.8,0l0.9-0.9l0.7,0.7l-8.8,8.8L48.6,50.9z M41.5,29.6l8.8,8.8L45,43.8L36.2,35L41.5,29.6z
		 M51.3,100.1c-13,0-24.8-5.1-33.5-13.5l31.4-31.4c2.2,2.8,3.5,6.2,3.5,9.8c0,0.3,0.1,0.6,0.4,0.9l10.6,10.6
		c0.2,0.2,0.6,0.4,0.9,0.4c0.3,0,0.6-0.1,0.9-0.4l2.7-2.7l9.7,9.7c0.2,0.2,0.6,0.4,0.9,0.4c0.3,0,0.6-0.1,0.9-0.4
		c0.5-0.5,0.5-1.3,0-1.8l-9.7-9.7l8.8-8.8l9.7,9.7c0.2,0.2,0.6,0.4,0.9,0.4c0.3,0,0.6-0.1,0.9-0.4c0.5-0.5,0.5-1.3,0-1.8l-9.7-9.7
		l2.7-2.7c0.5-0.5,0.5-1.3,0-1.8L72.5,46.4c-0.2-0.2-0.7-0.4-1-0.4c-3.5,0-6.9-1.3-9.7-3.5l24.8-24.8c8.3,8.7,13.5,20.5,13.5,33.5
		C100,78.2,78.1,100.1,51.3,100.1z"/></g><script type="text/javascript"><![CDATA[ var c=window.location.search.split("color=")[1];if(c=parseInt(c,16),!isNaN(c)){c=c.toString(16);for(var p=document.getElementsByTagName("path"),i=0,l=p.length;i<l;i++){p[i].style.fill="#"+c}} ]]></script></svg>