<svg xmlns="http://www.w3.org/2000/svg" viewBox="0 0 325 249.6"><g><g><path d="M256.2,249.6c-23.5,0-43.1-7.9-58.3-23.4c-15.1-15.5-22.8-37.8-22.8-66.3c0-30,8.7-59.8,25.9-88.7
			c17.2-28.8,41.7-52,72.8-68.9l4-2.2L305,41.3l-4,2.8c-16,11.1-28.9,23.5-38.2,36.9c-7.9,11.2-13.5,24-17,38.2
			c4.2-0.9,8.6-1.4,13.4-1.4c19.1,0,35,6.2,47.3,18.6c12.3,12.3,18.6,28.2,18.6,47.2c0,19.8-6.6,36-19.7,48
			C292.2,243.5,275.7,249.6,256.2,249.6z M274.6,13.3c-27.6,15.8-49.5,37-65,63c-16.3,27.3-24.5,55.4-24.5,83.5
			c0,25.8,6.7,45.8,20,59.3c13.4,13.7,30.2,20.4,51.1,20.4c17.2,0,31-5,42.3-15.4c11.1-10.2,16.5-23.5,16.5-40.6
			c0-16.3-5.3-29.8-15.6-40.2c-10.5-10.5-23.7-15.6-40.3-15.6c-6.8,0-12.9,1.1-18,3.4l-8.5,3.7l1.6-9.2c3.3-19,10.1-35.9,20.3-50.5
			c9.3-13.2,21.6-25.5,36.8-36.5L274.6,13.3z M81.1,249.6c-23.5,0-43.1-7.9-58.3-23.4C7.7,210.7,0,188.4,0,159.8
			c0-30,8.7-59.8,25.9-88.7c17.2-28.8,41.7-52,72.8-68.9l4-2.2l27.1,41.2l-4,2.8c-16,11.1-28.9,23.5-38.2,36.9
			c-7.9,11.2-13.5,24-17,38.2c4.2-0.9,8.6-1.4,13.4-1.4c19.1,0,35,6.2,47.3,18.6c12.3,12.4,18.6,28.4,18.6,47.3
			c0,19.8-6.6,36-19.7,48C117.3,243.5,100.7,249.6,81.1,249.6z M99.5,13.2c-27.6,15.8-49.5,37-65,63C18.2,103.5,10,131.6,10,159.8
			c0,25.9,6.7,45.9,20,59.4c13.4,13.7,30.2,20.4,51.1,20.4c17,0,31.3-5.2,42.3-15.4c11.1-10.2,16.5-23.5,16.5-40.6
			c0-16.5-5.1-29.7-15.7-40.3c-10.5-10.5-23.7-15.6-40.2-15.6c-6.8,0-12.9,1.1-18,3.4l-8.5,3.7l1.6-9.2c3.3-19,10.1-35.9,20.3-50.5
			c9.3-13.2,21.6-25.5,36.8-36.5L99.5,13.2z"/></g></g><script type="text/javascript"><![CDATA[ var c=window.location.search.split("color=")[1];if(c=parseInt(c,16),!isNaN(c)){c=c.toString(16);for(var p=document.getElementsByTagName("path"),i=0,l=p.length;i<l;i++){p[i].style.fill="#"+c}} ]]></script></svg>