<svg xmlns="http://www.w3.org/2000/svg" viewBox="0 0 102.5 102.6"><style type="text/css">.st0{fill:#111}</style><g><path class="st0" d="M48.3,30l4.1-8.2c0.3-0.6,0.1-1.4-0.6-1.7c-0.6-0.3-1.4-0.1-1.7,0.6l-5,10c-0.2,0.4-0.2,0.8,0.1,1.2
		c0.2,0.4,0.6,0.6,1.1,0.6h8l-4.1,8.2c-0.3,0.6-0.1,1.4,0.6,1.7c0.2,0.1,0.4,0.1,0.6,0.1c0.5,0,0.9-0.3,1.1-0.7l5-10
		c0.2-0.4,0.2-0.8-0.1-1.2c-0.2-0.4-0.6-0.6-1.1-0.6H48.3z"/><path class="st0" d="M51.3,12.6c-3.1,0-5.9,1.5-7.7,4.1l-31,46.5c-1.9,2.9-2.1,6.4-0.5,9.4c1.6,3,4.7,4.9,8.1,4.9h62
		c3.5,0,6.5-1.8,8.1-4.9c1.6-3,1.5-6.6-0.5-9.4l-31-46.5C57.2,14.1,54.3,12.6,51.3,12.6z M88.2,71.5c-1.2,2.2-3.4,3.5-5.9,3.5h-62
		c-2.5,0-4.7-1.3-5.9-3.5c-1.2-2.2-1.1-4.8,0.3-6.9l31-46.5c1.3-1.9,3.3-3,5.6-3s4.3,1.1,5.6,3l31,46.5
		C89.2,66.7,89.4,69.3,88.2,71.5z"/><path class="st0" d="M51.3,0C23,0,0,23,0,51.3s23,51.3,51.3,51.3s51.3-23,51.3-51.3S79.5,0,51.3,0z M51.3,100.1
		c-26.9,0-48.8-21.9-48.8-48.8S24.4,2.5,51.3,2.5S100,24.4,100,51.3S78.1,100.1,51.3,100.1z"/><path class="st0" d="M41.3,50h-10c-0.7,0-1.3,0.6-1.3,1.3s0.6,1.3,1.3,1.3H40V60h-8.8c-0.7,0-1.3,0.6-1.3,1.3v10
		c0,0.7,0.6,1.3,1.3,1.3h10c0.7,0,1.3-0.6,1.3-1.3c0-0.7-0.6-1.3-1.3-1.3h-8.8v-7.5h8.8c0.7,0,1.3-0.6,1.3-1.3v-10
		C42.5,50.6,41.9,50,41.3,50z"/><path class="st0" d="M56.3,50h-10c-0.7,0-1.3,0.6-1.3,1.3s0.6,1.3,1.3,1.3H55V60h-8.8c-0.7,0-1.3,0.6-1.3,1.3v10
		c0,0.7,0.6,1.3,1.3,1.3h10c0.7,0,1.3-0.6,1.3-1.3c0-0.7-0.6-1.3-1.3-1.3h-8.8v-7.5h8.8c0.7,0,1.3-0.6,1.3-1.3v-10
		C57.5,50.6,56.9,50,56.3,50z"/><path class="st0" d="M61.3,72.6h10c0.7,0,1.3-0.6,1.3-1.3v-20c0-0.7-0.6-1.3-1.3-1.3h-10c-0.7,0-1.3,0.6-1.3,1.3v20
		C60,72,60.6,72.6,61.3,72.6z M62.5,52.5H70v17.5h-7.5V52.5z"/></g><script type="text/javascript"><![CDATA[ var c=window.location.search.split("color=")[1];if(c=parseInt(c,16),!isNaN(c)){c=c.toString(16);for(var p=document.getElementsByTagName("path"),i=0,l=p.length;i<l;i++){p[i].style.fill="#"+c}} ]]></script></svg>