<svg xmlns="http://www.w3.org/2000/svg" viewBox="0 0 102.5 102.6"><style type="text/css">.st0{fill:#111}</style><g><path class="st0" d="M57.5,50.6c-0.2-0.4-0.6-0.7-1.1-0.7h-7.7L57.3,37c0.4-0.6,0.2-1.4-0.3-1.7c-0.6-0.4-1.4-0.2-1.7,0.3
		l-9.9,14.9c-0.3,0.4-0.3,0.9-0.1,1.3c0.2,0.4,0.6,0.7,1.1,0.7H54l-8.8,13.2c-0.4,0.6-0.2,1.3,0.3,1.7c0.2,0.1,0.5,0.2,0.7,0.2
		c0.4,0,0.8-0.2,1-0.6l10.1-15.1C57.7,51.5,57.7,51,57.5,50.6z"/><path class="st0" d="M76.8,57.2c0.5-2,0.7-4,0.7-6c0-4.9-1.4-9.6-3.8-13.5l12.8-12.8l5.8-2.8c0.2-0.1,0.3-0.2,0.5-0.4l9.5-12.5
		c0.4-0.5,0.3-1.2-0.1-1.6l-7-7.1c-0.4-0.4-1.1-0.5-1.6-0.1L80.8,9.8c-0.2,0.1-0.3,0.3-0.4,0.5l-2.8,5.8L64.9,28.8
		c-3.8-2.3-8-3.6-12.5-3.8c-0.2-6.6-2.8-12.7-7.6-17.4c-6.6-6.6-16.2-9.2-25.2-6.8c-1.2,0.3-1.3,1.4-0.6,2.1l14.7,14.7l-4,11.9
		l-11.9,4L3.3,18.9c-0.6-0.6-1.7-0.5-2.1,0.9c0,0,0,0,0,0c-2.3,8.9,0.3,18.4,6.8,24.9c4.7,4.7,10.8,7.3,17.4,7.6
		c0.1,1.7,0.3,3.4,0.7,5l-22,22c-5.3,5.3-5.3,13.9,0.2,19.4c2.7,2.7,6.1,4,9.6,4c3.5,0,7-1.3,9.6-4l22-22c2,0.5,4,0.7,6.1,0.7
		c2,0,4.1-0.3,6-0.7l25.3,25.3c0.2,0.2,0.6,0.4,0.9,0.4h8.8c0.3,0,0.6-0.1,0.9-0.4l8.8-8.8c0.2-0.2,0.4-0.6,0.4-0.9v-8.8
		c0-0.3-0.1-0.6-0.4-0.9L76.8,57.2z M79.6,17.7c0.1-0.1,0.2-0.2,0.2-0.3l2.7-5.7L94.1,3l5.5,5.6l-8.6,11.4l-5.7,2.7
		c-0.1,0.1-0.2,0.1-0.3,0.2L72.2,35.6c-1.5-2-3.2-3.8-5.2-5.3L79.6,17.7z M3.2,22.3l13.6,13.6c0.2,0.2,0.6,0.4,0.9,0.4
		c0.1,0,0.3,0,0.4-0.1l13.2-4.4c0.4-0.1,0.7-0.4,0.8-0.8l4.4-13.2c0.2-0.4,0-0.9-0.3-1.3L22.5,2.9C30,1.7,37.7,4.1,43.1,9.5
		c4.3,4.2,6.6,9.7,6.8,15.7c-13.2,0.7-23.8,11.3-24.6,24.6c-5.9-0.2-11.5-2.6-15.7-6.8C4.3,37.5,1.9,29.8,3.2,22.3z M21.6,96.8
		c-4.3,4.3-11.4,4.3-15.8-0.2c-4.3-4.3-4.3-11.4,0-15.7l21-21c0.4,1.3,1,2.5,1.6,3.7L11,81c-0.5,0.5-0.5,1.3,0,1.8
		c0.2,0.2,0.6,0.4,0.9,0.4s0.6-0.1,0.9-0.4l17-17c0.7,1,1.5,2,2.3,2.9L11,89.8c-0.5,0.5-0.5,1.3,0,1.8c0.2,0.2,0.6,0.4,0.9,0.4
		s0.6-0.1,0.9-0.4l21.1-21.1c0.9,0.8,1.9,1.6,3,2.3l-17,17c-0.5,0.5-0.5,1.3,0,1.8c0.2,0.2,0.6,0.4,0.9,0.4s0.6-0.1,0.9-0.4L39,74.2
		c1.2,0.6,2.4,1.2,3.6,1.6L21.6,96.8z M45.2,74c-4-1.1-7.7-3.2-10.6-6.1c-2.9-2.9-5.1-6.6-6.1-10.6c-0.5-2-0.8-4-0.8-6.2
		c0-13,10.6-23.6,23.7-23.6c4.6,0,9.1,1.4,13.1,3.9c2.7,1.8,5,4.1,6.7,6.7c2.6,3.8,3.9,8.3,3.9,13c0,2.1-0.3,4.1-0.8,6.1
		c-2.2,8.1-8.6,14.5-16.7,16.7C53.5,75.1,49.3,75.1,45.2,74z M100,91.7l-8.1,8.1h-7.8l-24-24c7.4-2.6,13.2-8.5,15.8-15.8l24,24V91.7
		z"/><path class="st0" d="M78.3,88.7c1.5,1.5,3.4,2.2,5.3,2.2c1.9,0,3.8-0.7,5.3-2.2c2.9-2.9,2.9-7.7,0-10.6c-2.9-2.9-7.7-2.9-10.6,0
		C75.4,81.1,75.4,85.8,78.3,88.7z M80.1,79.9c1-1,2.2-1.5,3.5-1.5c1.3,0,2.5,0.5,3.5,1.5c1.9,1.9,1.9,5.1,0,7c-1.9,1.9-5.1,1.9-7,0
		C78.2,85,78.2,81.8,80.1,79.9z"/></g><script type="text/javascript"><![CDATA[ var c=window.location.search.split("color=")[1];if(c=parseInt(c,16),!isNaN(c)){c=c.toString(16);for(var p=document.getElementsByTagName("path"),i=0,l=p.length;i<l;i++){p[i].style.fill="#"+c}} ]]></script></svg>