<svg xmlns="http://www.w3.org/2000/svg" viewBox="0 0 102.5 102.6"><style type="text/css">.st0{fill:#111}</style><g><path class="st0" d="M96.3,0h-90C2.8,0,0,2.9,0,6.3v90c0,3.4,2.8,6.3,6.2,6.3h90c3.4,0,6.3-2.8,6.3-6.3v-90
		C102.5,2.9,99.7,0,96.3,0z M100,96.3c0,2.1-1.7,3.8-3.8,3.8h-90c-2.1,0-3.7-1.7-3.7-3.8v-90c0-2.1,1.7-3.8,3.7-3.8h90
		c2.1,0,3.8,1.7,3.8,3.8V96.3z"/><path class="st0" d="M83.6,10H18.9C14,10,10,14,10,19v64.7c0,4.9,4,8.9,8.9,8.9h64.7c4.9,0,8.9-4,8.9-8.9V19
		C92.5,14,88.5,10,83.6,10z M90,83.6c0,3.5-2.9,6.4-6.4,6.4H18.9c-3.5,0-6.4-2.9-6.4-6.4V19c0-3.5,2.9-6.4,6.4-6.4h64.7
		c3.5,0,6.4,2.9,6.4,6.4V83.6z"/><path class="st0" d="M51.3,20C34,20,20,34.1,20,51.3c0,17.2,14,31.3,31.3,31.3s31.3-14,31.3-31.3C82.5,34.1,68.5,20,51.3,20z
		 M51.3,80.1c-15.9,0-28.8-12.9-28.8-28.8s12.9-28.8,28.8-28.8S80,35.4,80,51.3S67.1,80.1,51.3,80.1z"/><path class="st0" d="M51.3,25C36.8,25,25,36.8,25,51.3c0,14.5,11.8,26.3,26.3,26.3s26.3-11.8,26.3-26.3C77.5,36.8,65.7,25,51.3,25z
		 M52.5,74.9v-3.6c0-0.7-0.6-1.3-1.3-1.3S50,70.6,50,71.3v3.6c-12.5-0.7-22.5-11-22.5-23.6c0-12.7,10-23,22.5-23.6v3.6
		c0,0.7,0.6,1.3,1.3,1.3s1.3-0.6,1.3-1.3v-3.6C65,28.3,75,38.6,75,51.3C75,64,65,74.3,52.5,74.9z"/><path class="st0" d="M41.3,45c-3.4,0-6.3,2.8-6.3,6.3c0,3.4,2.8,6.3,6.3,6.3s6.3-2.8,6.3-6.3C47.5,47.9,44.7,45,41.3,45z M41.3,55
		c-2.1,0-3.8-1.7-3.8-3.8s1.7-3.8,3.8-3.8c2.1,0,3.8,1.7,3.8,3.8S43.3,55,41.3,55z"/><path class="st0" d="M61.3,45c-3.4,0-6.3,2.8-6.3,6.3c0,3.4,2.8,6.3,6.3,6.3c3.4,0,6.3-2.8,6.3-6.3C67.5,47.9,64.7,45,61.3,45z
		 M61.3,55c-2.1,0-3.8-1.7-3.8-3.8s1.7-3.8,3.8-3.8c2.1,0,3.8,1.7,3.8,3.8S63.3,55,61.3,55z"/></g><script type="text/javascript"><![CDATA[ var c=window.location.search.split("color=")[1];if(c=parseInt(c,16),!isNaN(c)){c=c.toString(16);for(var p=document.getElementsByTagName("path"),i=0,l=p.length;i<l;i++){p[i].style.fill="#"+c}} ]]></script></svg>