<svg xmlns="http://www.w3.org/2000/svg" viewBox="0 0 244.6 254.3"><style type="text/css">.st0{fill:#111}</style><g><path class="st0" d="M135,112.1l13.5-49.6l11.4-42.1c-11.7-4.3-24.4-6.7-37.6-6.7c-6.4,0-12.7,0.6-18.7,1.6
		C52.3,24.3,13.3,69,13.3,122.8c0,51.3,35.5,94.3,83.2,105.9l1.4-44.9c-24.2-9.7-41.3-33.3-41.3-61c0-30.2,20.3-55.6,48-63.3
		l2.3,94.3l9.5-3.2l-1.2,37.5l-1.4,43.4l-0.3,9l2.4-8.8l12-43.4l22.2-80.8L135,112.1z"/><path class="st0" d="M208.1,55.6l-32.9,28.3c8,10.9,12.8,24.3,12.8,38.9c0,27.3-16.7,50.7-40.5,60.6l-13.1,47.7
		c54.5-6,96.9-52.2,96.9-108.3C231.3,97.5,222.6,74.1,208.1,55.6z"/></g><script type="text/javascript"><![CDATA[ var c=window.location.search.split("color=")[1];if(c=parseInt(c,16),!isNaN(c)){c=c.toString(16);for(var p=document.getElementsByTagName("path"),i=0,l=p.length;i<l;i++){p[i].style.fill="#"+c}} ]]></script></svg>